<mxfile host="Electron" agent="Mozilla/5.0 (Windows NT 10.0; Win64; x64) AppleWebKit/537.36 (KHTML, like Gecko) draw.io/26.2.15 Chrome/134.0.6998.205 Electron/35.2.1 Safari/537.36" version="26.2.15" pages="4">
  <diagram id="RdHt8J60be4vsjF3fexD" name="General">
    <mxGraphModel dx="872" dy="537" grid="1" gridSize="10" guides="1" tooltips="1" connect="1" arrows="1" fold="1" page="1" pageScale="1" pageWidth="827" pageHeight="1169" math="0" shadow="0">
      <root>
        <mxCell id="0" />
        <mxCell id="1" parent="0" />
        <mxCell id="xcNlkpQ875h0wGwDwhvw-1" value="Registrarse" style="ellipse;whiteSpace=wrap;html=1;" vertex="1" parent="1">
          <mxGeometry x="353" y="60" width="120" height="80" as="geometry" />
        </mxCell>
        <mxCell id="xcNlkpQ875h0wGwDwhvw-2" value="Iniciar Sesion" style="ellipse;whiteSpace=wrap;html=1;" vertex="1" parent="1">
          <mxGeometry x="353" y="190" width="120" height="80" as="geometry" />
        </mxCell>
        <mxCell id="xcNlkpQ875h0wGwDwhvw-3" value="" style="endArrow=classic;html=1;rounded=0;" edge="1" parent="1" source="xcNlkpQ875h0wGwDwhvw-1" target="xcNlkpQ875h0wGwDwhvw-2">
          <mxGeometry width="50" height="50" relative="1" as="geometry">
            <mxPoint x="390" y="360" as="sourcePoint" />
            <mxPoint x="440" y="310" as="targetPoint" />
          </mxGeometry>
        </mxCell>
        <mxCell id="xcNlkpQ875h0wGwDwhvw-4" value="Productos" style="ellipse;whiteSpace=wrap;html=1;" vertex="1" parent="1">
          <mxGeometry x="353" y="320" width="120" height="80" as="geometry" />
        </mxCell>
        <mxCell id="xcNlkpQ875h0wGwDwhvw-5" value="Carrito de compras" style="ellipse;whiteSpace=wrap;html=1;" vertex="1" parent="1">
          <mxGeometry x="490" y="400" width="120" height="80" as="geometry" />
        </mxCell>
        <mxCell id="xcNlkpQ875h0wGwDwhvw-6" value="" style="endArrow=classic;html=1;rounded=0;" edge="1" parent="1" source="xcNlkpQ875h0wGwDwhvw-5" target="xcNlkpQ875h0wGwDwhvw-4">
          <mxGeometry width="50" height="50" relative="1" as="geometry">
            <mxPoint x="390" y="360" as="sourcePoint" />
            <mxPoint x="440" y="420" as="targetPoint" />
          </mxGeometry>
        </mxCell>
        <mxCell id="xcNlkpQ875h0wGwDwhvw-8" value="Ordenes/pedidos" style="ellipse;whiteSpace=wrap;html=1;" vertex="1" parent="1">
          <mxGeometry x="353" y="450" width="120" height="80" as="geometry" />
        </mxCell>
        <mxCell id="xcNlkpQ875h0wGwDwhvw-9" value="ADMIN" style="shape=umlActor;verticalLabelPosition=bottom;verticalAlign=top;html=1;outlineConnect=0;" vertex="1" parent="1">
          <mxGeometry x="60" y="390" width="30" height="60" as="geometry" />
        </mxCell>
        <mxCell id="xcNlkpQ875h0wGwDwhvw-10" value="EMPLEADO" style="shape=umlActor;verticalLabelPosition=bottom;verticalAlign=top;html=1;outlineConnect=0;" vertex="1" parent="1">
          <mxGeometry x="60" y="740" width="30" height="60" as="geometry" />
        </mxCell>
        <mxCell id="xcNlkpQ875h0wGwDwhvw-11" value="CLIENTE" style="shape=umlActor;verticalLabelPosition=bottom;verticalAlign=top;html=1;outlineConnect=0;" vertex="1" parent="1">
          <mxGeometry x="720" y="550" width="30" height="60" as="geometry" />
        </mxCell>
        <mxCell id="xcNlkpQ875h0wGwDwhvw-12" value="Envios" style="ellipse;whiteSpace=wrap;html=1;" vertex="1" parent="1">
          <mxGeometry x="353" y="720" width="120" height="80" as="geometry" />
        </mxCell>
        <mxCell id="xcNlkpQ875h0wGwDwhvw-13" value="Gestionar usuarios/empleados" style="ellipse;whiteSpace=wrap;html=1;" vertex="1" parent="1">
          <mxGeometry x="353" y="584.5" width="120" height="80" as="geometry" />
        </mxCell>
        <mxCell id="xcNlkpQ875h0wGwDwhvw-14" value="Categorias y subcategorias" style="ellipse;whiteSpace=wrap;html=1;" vertex="1" parent="1">
          <mxGeometry x="220" y="390" width="120" height="80" as="geometry" />
        </mxCell>
        <mxCell id="xcNlkpQ875h0wGwDwhvw-15" value="" style="endArrow=classic;html=1;rounded=0;" edge="1" parent="1" source="xcNlkpQ875h0wGwDwhvw-4" target="xcNlkpQ875h0wGwDwhvw-14">
          <mxGeometry width="50" height="50" relative="1" as="geometry">
            <mxPoint x="150" y="540" as="sourcePoint" />
            <mxPoint x="310" y="500" as="targetPoint" />
          </mxGeometry>
        </mxCell>
        <mxCell id="xcNlkpQ875h0wGwDwhvw-16" value="Vehiculos" style="ellipse;whiteSpace=wrap;html=1;" vertex="1" parent="1">
          <mxGeometry x="220" y="240" width="120" height="80" as="geometry" />
        </mxCell>
        <mxCell id="xcNlkpQ875h0wGwDwhvw-19" value="Notificaciones" style="ellipse;whiteSpace=wrap;html=1;" vertex="1" parent="1">
          <mxGeometry x="353" y="860" width="120" height="80" as="geometry" />
        </mxCell>
        <mxCell id="xcNlkpQ875h0wGwDwhvw-21" value="IntegracÃ³n&amp;nbsp;&lt;br&gt;MAIA ERP" style="ellipse;whiteSpace=wrap;html=1;" vertex="1" parent="1">
          <mxGeometry x="353" y="1000" width="120" height="80" as="geometry" />
        </mxCell>
        <mxCell id="xcNlkpQ875h0wGwDwhvw-22" value="" style="endArrow=none;html=1;rounded=0;" edge="1" parent="1" target="xcNlkpQ875h0wGwDwhvw-11">
          <mxGeometry width="50" height="50" relative="1" as="geometry">
            <mxPoint x="640" y="580" as="sourcePoint" />
            <mxPoint x="720" y="584.88" as="targetPoint" />
          </mxGeometry>
        </mxCell>
        <mxCell id="xcNlkpQ875h0wGwDwhvw-23" value="" style="endArrow=classic;html=1;rounded=0;" edge="1" parent="1" target="xcNlkpQ875h0wGwDwhvw-1">
          <mxGeometry width="50" height="50" relative="1" as="geometry">
            <mxPoint x="640" y="580" as="sourcePoint" />
            <mxPoint x="500" y="360" as="targetPoint" />
            <Array as="points">
              <mxPoint x="640" y="100" />
            </Array>
          </mxGeometry>
        </mxCell>
        <mxCell id="xcNlkpQ875h0wGwDwhvw-24" value="" style="endArrow=classic;html=1;rounded=0;" edge="1" parent="1" target="xcNlkpQ875h0wGwDwhvw-2">
          <mxGeometry width="50" height="50" relative="1" as="geometry">
            <mxPoint x="640" y="580" as="sourcePoint" />
            <mxPoint x="520" y="410" as="targetPoint" />
            <Array as="points">
              <mxPoint x="640" y="230" />
            </Array>
          </mxGeometry>
        </mxCell>
        <mxCell id="xcNlkpQ875h0wGwDwhvw-25" value="" style="endArrow=classic;html=1;rounded=0;" edge="1" parent="1" target="xcNlkpQ875h0wGwDwhvw-4">
          <mxGeometry width="50" height="50" relative="1" as="geometry">
            <mxPoint x="640" y="580" as="sourcePoint" />
            <mxPoint x="520" y="380" as="targetPoint" />
            <Array as="points">
              <mxPoint x="640" y="360" />
            </Array>
          </mxGeometry>
        </mxCell>
        <mxCell id="xcNlkpQ875h0wGwDwhvw-26" value="" style="endArrow=classic;html=1;rounded=0;" edge="1" parent="1" target="xcNlkpQ875h0wGwDwhvw-8">
          <mxGeometry width="50" height="50" relative="1" as="geometry">
            <mxPoint x="640" y="580" as="sourcePoint" />
            <mxPoint x="520" y="560" as="targetPoint" />
            <Array as="points">
              <mxPoint x="640" y="490" />
            </Array>
          </mxGeometry>
        </mxCell>
        <mxCell id="xcNlkpQ875h0wGwDwhvw-27" value="" style="endArrow=classic;html=1;rounded=0;" edge="1" parent="1" target="xcNlkpQ875h0wGwDwhvw-12">
          <mxGeometry width="50" height="50" relative="1" as="geometry">
            <mxPoint x="640" y="580" as="sourcePoint" />
            <mxPoint x="520" y="560" as="targetPoint" />
            <Array as="points">
              <mxPoint x="640" y="760" />
            </Array>
          </mxGeometry>
        </mxCell>
        <mxCell id="xcNlkpQ875h0wGwDwhvw-29" value="" style="endArrow=none;html=1;rounded=0;fillColor=#0050ef;strokeColor=#001DBC;" edge="1" parent="1" source="xcNlkpQ875h0wGwDwhvw-9">
          <mxGeometry width="50" height="50" relative="1" as="geometry">
            <mxPoint x="160" y="420" as="sourcePoint" />
            <mxPoint x="160" y="420" as="targetPoint" />
          </mxGeometry>
        </mxCell>
        <mxCell id="xcNlkpQ875h0wGwDwhvw-30" value="" style="endArrow=classic;html=1;rounded=0;fillColor=#0050ef;strokeColor=#001DBC;" edge="1" parent="1" target="xcNlkpQ875h0wGwDwhvw-2">
          <mxGeometry width="50" height="50" relative="1" as="geometry">
            <mxPoint x="160" y="420" as="sourcePoint" />
            <mxPoint x="350" y="310" as="targetPoint" />
            <Array as="points">
              <mxPoint x="160" y="230" />
            </Array>
          </mxGeometry>
        </mxCell>
        <mxCell id="xcNlkpQ875h0wGwDwhvw-31" value="" style="endArrow=classic;html=1;rounded=0;" edge="1" parent="1" source="xcNlkpQ875h0wGwDwhvw-4" target="xcNlkpQ875h0wGwDwhvw-16">
          <mxGeometry width="50" height="50" relative="1" as="geometry">
            <mxPoint x="348" y="414" as="sourcePoint" />
            <mxPoint x="378" y="396" as="targetPoint" />
          </mxGeometry>
        </mxCell>
        <mxCell id="xcNlkpQ875h0wGwDwhvw-51" value="include" style="edgeLabel;html=1;align=center;verticalAlign=middle;resizable=0;points=[];rotation=0;" vertex="1" connectable="0" parent="xcNlkpQ875h0wGwDwhvw-31">
          <mxGeometry x="-0.1787" relative="1" as="geometry">
            <mxPoint x="3" y="-2" as="offset" />
          </mxGeometry>
        </mxCell>
        <mxCell id="xcNlkpQ875h0wGwDwhvw-32" value="" style="endArrow=classic;html=1;rounded=0;fillColor=#0050ef;strokeColor=#001DBC;" edge="1" parent="1" target="xcNlkpQ875h0wGwDwhvw-4">
          <mxGeometry width="50" height="50" relative="1" as="geometry">
            <mxPoint x="160" y="420" as="sourcePoint" />
            <mxPoint x="420" y="560" as="targetPoint" />
            <Array as="points">
              <mxPoint x="160" y="360" />
            </Array>
          </mxGeometry>
        </mxCell>
        <mxCell id="xcNlkpQ875h0wGwDwhvw-33" value="" style="endArrow=classic;html=1;rounded=0;fillColor=#0050ef;strokeColor=#001DBC;" edge="1" parent="1" target="xcNlkpQ875h0wGwDwhvw-8">
          <mxGeometry width="50" height="50" relative="1" as="geometry">
            <mxPoint x="160" y="420" as="sourcePoint" />
            <mxPoint x="420" y="420" as="targetPoint" />
            <Array as="points">
              <mxPoint x="160" y="490" />
            </Array>
          </mxGeometry>
        </mxCell>
        <mxCell id="xcNlkpQ875h0wGwDwhvw-34" value="" style="endArrow=classic;html=1;rounded=0;fillColor=#0050ef;strokeColor=#001DBC;" edge="1" parent="1" target="xcNlkpQ875h0wGwDwhvw-13">
          <mxGeometry width="50" height="50" relative="1" as="geometry">
            <mxPoint x="160" y="420" as="sourcePoint" />
            <mxPoint x="420" y="420" as="targetPoint" />
            <Array as="points">
              <mxPoint x="160" y="625" />
            </Array>
          </mxGeometry>
        </mxCell>
        <mxCell id="xcNlkpQ875h0wGwDwhvw-35" value="" style="endArrow=classic;html=1;rounded=0;fillColor=#0050ef;strokeColor=#001DBC;" edge="1" parent="1" target="xcNlkpQ875h0wGwDwhvw-12">
          <mxGeometry width="50" height="50" relative="1" as="geometry">
            <mxPoint x="160" y="420" as="sourcePoint" />
            <mxPoint x="260" y="630" as="targetPoint" />
            <Array as="points">
              <mxPoint x="160" y="760" />
            </Array>
          </mxGeometry>
        </mxCell>
        <mxCell id="xcNlkpQ875h0wGwDwhvw-36" value="" style="endArrow=classic;html=1;rounded=0;fillColor=#0050ef;strokeColor=#001DBC;" edge="1" parent="1" target="xcNlkpQ875h0wGwDwhvw-19">
          <mxGeometry width="50" height="50" relative="1" as="geometry">
            <mxPoint x="160" y="420" as="sourcePoint" />
            <mxPoint x="420" y="700" as="targetPoint" />
            <Array as="points">
              <mxPoint x="160" y="900" />
            </Array>
          </mxGeometry>
        </mxCell>
        <mxCell id="xcNlkpQ875h0wGwDwhvw-37" value="" style="endArrow=classic;html=1;rounded=0;fillColor=#0050ef;strokeColor=#001DBC;" edge="1" parent="1" target="xcNlkpQ875h0wGwDwhvw-21">
          <mxGeometry width="50" height="50" relative="1" as="geometry">
            <mxPoint x="160" y="420" as="sourcePoint" />
            <mxPoint x="250" y="810" as="targetPoint" />
            <Array as="points">
              <mxPoint x="160" y="1040" />
            </Array>
          </mxGeometry>
        </mxCell>
        <mxCell id="xcNlkpQ875h0wGwDwhvw-38" value="" style="endArrow=classic;html=1;rounded=0;" edge="1" parent="1" target="xcNlkpQ875h0wGwDwhvw-5">
          <mxGeometry width="50" height="50" relative="1" as="geometry">
            <mxPoint x="640" y="580" as="sourcePoint" />
            <mxPoint x="510" y="500" as="targetPoint" />
            <Array as="points">
              <mxPoint x="640" y="440" />
            </Array>
          </mxGeometry>
        </mxCell>
        <mxCell id="xcNlkpQ875h0wGwDwhvw-39" value="" style="endArrow=classic;html=1;rounded=0;fillColor=#0050ef;strokeColor=#001DBC;" edge="1" parent="1" target="xcNlkpQ875h0wGwDwhvw-16">
          <mxGeometry width="50" height="50" relative="1" as="geometry">
            <mxPoint x="160" y="420" as="sourcePoint" />
            <mxPoint x="200" y="360" as="targetPoint" />
            <Array as="points">
              <mxPoint x="160" y="280" />
            </Array>
          </mxGeometry>
        </mxCell>
        <mxCell id="xcNlkpQ875h0wGwDwhvw-40" value="" style="endArrow=classic;html=1;rounded=0;fillColor=#0050ef;strokeColor=#001DBC;" edge="1" parent="1" target="xcNlkpQ875h0wGwDwhvw-14">
          <mxGeometry width="50" height="50" relative="1" as="geometry">
            <mxPoint x="160" y="420" as="sourcePoint" />
            <mxPoint x="269" y="333" as="targetPoint" />
            <Array as="points">
              <mxPoint x="160" y="430" />
            </Array>
          </mxGeometry>
        </mxCell>
        <mxCell id="xcNlkpQ875h0wGwDwhvw-41" value="" style="endArrow=none;html=1;rounded=0;fillColor=#008a00;strokeColor=#005700;" edge="1" parent="1" source="xcNlkpQ875h0wGwDwhvw-10">
          <mxGeometry width="50" height="50" relative="1" as="geometry">
            <mxPoint x="220" y="700" as="sourcePoint" />
            <mxPoint x="140" y="770" as="targetPoint" />
          </mxGeometry>
        </mxCell>
        <mxCell id="xcNlkpQ875h0wGwDwhvw-42" value="" style="endArrow=classic;html=1;rounded=0;fillColor=#008a00;strokeColor=#005700;" edge="1" parent="1">
          <mxGeometry width="50" height="50" relative="1" as="geometry">
            <mxPoint x="140" y="770" as="sourcePoint" />
            <mxPoint x="310" y="230" as="targetPoint" />
            <Array as="points">
              <mxPoint x="140" y="230" />
            </Array>
          </mxGeometry>
        </mxCell>
        <mxCell id="xcNlkpQ875h0wGwDwhvw-43" value="" style="endArrow=classic;html=1;rounded=0;fillColor=#008a00;strokeColor=#005700;" edge="1" parent="1">
          <mxGeometry width="50" height="50" relative="1" as="geometry">
            <mxPoint x="140" y="770" as="sourcePoint" />
            <mxPoint x="200" y="280" as="targetPoint" />
            <Array as="points">
              <mxPoint x="140" y="280" />
            </Array>
          </mxGeometry>
        </mxCell>
        <mxCell id="xcNlkpQ875h0wGwDwhvw-44" value="" style="endArrow=classic;html=1;rounded=0;fillColor=#008a00;strokeColor=#005700;" edge="1" parent="1">
          <mxGeometry width="50" height="50" relative="1" as="geometry">
            <mxPoint x="140" y="770" as="sourcePoint" />
            <mxPoint x="190" y="430" as="targetPoint" />
            <Array as="points">
              <mxPoint x="140" y="430" />
            </Array>
          </mxGeometry>
        </mxCell>
        <mxCell id="xcNlkpQ875h0wGwDwhvw-45" value="" style="endArrow=classic;html=1;rounded=0;fillColor=#008a00;strokeColor=#005700;" edge="1" parent="1">
          <mxGeometry width="50" height="50" relative="1" as="geometry">
            <mxPoint x="140" y="770" as="sourcePoint" />
            <mxPoint x="310" y="360" as="targetPoint" />
            <Array as="points">
              <mxPoint x="140" y="360" />
            </Array>
          </mxGeometry>
        </mxCell>
        <mxCell id="xcNlkpQ875h0wGwDwhvw-46" value="" style="endArrow=classic;html=1;rounded=0;fillColor=#008a00;strokeColor=#005700;" edge="1" parent="1">
          <mxGeometry width="50" height="50" relative="1" as="geometry">
            <mxPoint x="140" y="770" as="sourcePoint" />
            <mxPoint x="320" y="490" as="targetPoint" />
            <Array as="points">
              <mxPoint x="140" y="490" />
            </Array>
          </mxGeometry>
        </mxCell>
        <mxCell id="xcNlkpQ875h0wGwDwhvw-47" value="" style="endArrow=classic;html=1;rounded=0;fillColor=#008a00;strokeColor=#005700;" edge="1" parent="1">
          <mxGeometry width="50" height="50" relative="1" as="geometry">
            <mxPoint x="140" y="770" as="sourcePoint" />
            <mxPoint x="330" y="625" as="targetPoint" />
            <Array as="points">
              <mxPoint x="140" y="625" />
            </Array>
          </mxGeometry>
        </mxCell>
        <mxCell id="xcNlkpQ875h0wGwDwhvw-48" value="" style="endArrow=classic;html=1;rounded=0;fillColor=#008a00;strokeColor=#005700;" edge="1" parent="1">
          <mxGeometry width="50" height="50" relative="1" as="geometry">
            <mxPoint x="140" y="770" as="sourcePoint" />
            <mxPoint x="330" y="760" as="targetPoint" />
            <Array as="points">
              <mxPoint x="160" y="760" />
            </Array>
          </mxGeometry>
        </mxCell>
        <mxCell id="xcNlkpQ875h0wGwDwhvw-49" value="" style="endArrow=classic;html=1;rounded=0;fillColor=#008a00;strokeColor=#005700;" edge="1" parent="1">
          <mxGeometry width="50" height="50" relative="1" as="geometry">
            <mxPoint x="140" y="770" as="sourcePoint" />
            <mxPoint x="320" y="900" as="targetPoint" />
            <Array as="points">
              <mxPoint x="140" y="900" />
            </Array>
          </mxGeometry>
        </mxCell>
        <mxCell id="xcNlkpQ875h0wGwDwhvw-50" value="" style="endArrow=classic;html=1;rounded=0;fillColor=#008a00;strokeColor=#005700;" edge="1" parent="1">
          <mxGeometry width="50" height="50" relative="1" as="geometry">
            <mxPoint x="140" y="770" as="sourcePoint" />
            <mxPoint x="320" y="1040" as="targetPoint" />
            <Array as="points">
              <mxPoint x="140" y="1040" />
            </Array>
          </mxGeometry>
        </mxCell>
        <mxCell id="xcNlkpQ875h0wGwDwhvw-52" value="include" style="edgeLabel;html=1;align=center;verticalAlign=middle;resizable=0;points=[];" vertex="1" connectable="0" parent="1">
          <mxGeometry x="359.9967927576621" y="409.9989976391913" as="geometry" />
        </mxCell>
        <mxCell id="xcNlkpQ875h0wGwDwhvw-54" value="include" style="edgeLabel;html=1;align=center;verticalAlign=middle;resizable=0;points=[];rotation=0;" vertex="1" connectable="0" parent="1">
          <mxGeometry x="414.0008010064603" y="159.99573220307576" as="geometry" />
        </mxCell>
        <mxCell id="xcNlkpQ875h0wGwDwhvw-55" value="include" style="edgeLabel;html=1;align=center;verticalAlign=middle;resizable=0;points=[];rotation=0;" vertex="1" connectable="0" parent="1">
          <mxGeometry x="489.9967927576621" y="399.9989976391913" as="geometry" />
        </mxCell>
      </root>
    </mxGraphModel>
  </diagram>
  <diagram name="Usuarios" id="LkhYgVmp9MZVAEMmk4Zy">
    <mxGraphModel dx="872" dy="537" grid="1" gridSize="10" guides="1" tooltips="1" connect="1" arrows="1" fold="1" page="1" pageScale="1" pageWidth="827" pageHeight="1169" math="0" shadow="0">
      <root>
        <mxCell id="0" />
        <mxCell id="1" parent="0" />
        <mxCell id="7KdjpbVQxa-HGitWMLBR-1" value="USER" style="shape=umlActor;verticalLabelPosition=bottom;verticalAlign=top;html=1;outlineConnect=0;" parent="1" vertex="1">
          <mxGeometry x="10" y="220" width="30" height="60" as="geometry" />
        </mxCell>
        <mxCell id="7KdjpbVQxa-HGitWMLBR-4" value="&lt;div&gt;&lt;span style=&quot;background-color: transparent; color: light-dark(rgb(0, 0, 0), rgb(255, 255, 255));&quot;&gt;Iniciar SesiÃ³n&lt;/span&gt;&lt;/div&gt;" style="ellipse;whiteSpace=wrap;html=1;" parent="1" vertex="1">
          <mxGeometry x="215" y="100" width="110" height="50" as="geometry" />
        </mxCell>
        <mxCell id="7KdjpbVQxa-HGitWMLBR-7" value="Registrarse" style="ellipse;whiteSpace=wrap;html=1;" parent="1" vertex="1">
          <mxGeometry x="35" y="100" width="110" height="50" as="geometry" />
        </mxCell>
        <mxCell id="7KdjpbVQxa-HGitWMLBR-8" value="Gestionar perfil" style="ellipse;whiteSpace=wrap;html=1;" parent="1" vertex="1">
          <mxGeometry x="215" y="10" width="110" height="50" as="geometry" />
        </mxCell>
        <mxCell id="7KdjpbVQxa-HGitWMLBR-9" value="Explorar productos" style="ellipse;whiteSpace=wrap;html=1;" parent="1" vertex="1">
          <mxGeometry x="210" y="225" width="120" height="50" as="geometry" />
        </mxCell>
        <mxCell id="7KdjpbVQxa-HGitWMLBR-10" value="Comprar producto(s)" style="ellipse;whiteSpace=wrap;html=1;" parent="1" vertex="1">
          <mxGeometry x="450" y="225" width="120" height="50" as="geometry" />
        </mxCell>
        <mxCell id="7KdjpbVQxa-HGitWMLBR-11" value="Recuperar contraseÃ±a" style="ellipse;whiteSpace=wrap;html=1;" parent="1" vertex="1">
          <mxGeometry x="391.5" y="100" width="120" height="45" as="geometry" />
        </mxCell>
        <mxCell id="7KdjpbVQxa-HGitWMLBR-15" value="Extends" style="endArrow=block;endSize=16;endFill=0;html=1;rounded=0;" parent="1" source="7KdjpbVQxa-HGitWMLBR-4" target="7KdjpbVQxa-HGitWMLBR-11" edge="1">
          <mxGeometry width="160" relative="1" as="geometry">
            <mxPoint x="390" y="350" as="sourcePoint" />
            <mxPoint x="550" y="290" as="targetPoint" />
          </mxGeometry>
        </mxCell>
        <mxCell id="7KdjpbVQxa-HGitWMLBR-16" value="" style="endArrow=classic;html=1;rounded=0;" parent="1" source="7KdjpbVQxa-HGitWMLBR-1" target="7KdjpbVQxa-HGitWMLBR-7" edge="1">
          <mxGeometry width="50" height="50" relative="1" as="geometry">
            <mxPoint x="380" y="320" as="sourcePoint" />
            <mxPoint x="430" y="270" as="targetPoint" />
          </mxGeometry>
        </mxCell>
        <mxCell id="7KdjpbVQxa-HGitWMLBR-18" value="agregar producto&lt;div&gt;eliminar producto&lt;/div&gt;" style="ellipse;whiteSpace=wrap;html=1;" parent="1" vertex="1">
          <mxGeometry x="203" y="440" width="134" height="50" as="geometry" />
        </mxCell>
        <mxCell id="7KdjpbVQxa-HGitWMLBR-19" value="" style="endArrow=classic;html=1;rounded=0;" parent="1" source="7KdjpbVQxa-HGitWMLBR-4" target="7KdjpbVQxa-HGitWMLBR-9" edge="1">
          <mxGeometry width="50" height="50" relative="1" as="geometry">
            <mxPoint x="260" y="160" as="sourcePoint" />
            <mxPoint x="320" y="210" as="targetPoint" />
          </mxGeometry>
        </mxCell>
        <mxCell id="7KdjpbVQxa-HGitWMLBR-21" value="Extends" style="endArrow=block;endSize=16;endFill=0;html=1;rounded=0;" parent="1" source="7OBwWZN6_JswfeEJof94-1" target="7KdjpbVQxa-HGitWMLBR-18" edge="1">
          <mxGeometry x="-0.2342" y="-7" width="160" relative="1" as="geometry">
            <mxPoint x="450" y="100" as="sourcePoint" />
            <mxPoint x="380" y="200" as="targetPoint" />
            <mxPoint as="offset" />
          </mxGeometry>
        </mxCell>
        <mxCell id="7KdjpbVQxa-HGitWMLBR-23" value="" style="endArrow=classic;html=1;rounded=0;" parent="1" source="7KdjpbVQxa-HGitWMLBR-1" target="7KdjpbVQxa-HGitWMLBR-9" edge="1">
          <mxGeometry width="50" height="50" relative="1" as="geometry">
            <mxPoint x="249" y="345" as="sourcePoint" />
            <mxPoint x="304" y="260" as="targetPoint" />
          </mxGeometry>
        </mxCell>
        <mxCell id="7KdjpbVQxa-HGitWMLBR-25" value="" style="endArrow=classic;html=1;rounded=0;" parent="1" source="7KdjpbVQxa-HGitWMLBR-9" target="7KdjpbVQxa-HGitWMLBR-10" edge="1">
          <mxGeometry width="50" height="50" relative="1" as="geometry">
            <mxPoint x="50" y="260" as="sourcePoint" />
            <mxPoint x="260" y="260" as="targetPoint" />
          </mxGeometry>
        </mxCell>
        <mxCell id="7KdjpbVQxa-HGitWMLBR-26" value="Include" style="edgeLabel;html=1;align=center;verticalAlign=middle;resizable=0;points=[];" parent="7KdjpbVQxa-HGitWMLBR-25" vertex="1" connectable="0">
          <mxGeometry x="-0.0435" y="2" relative="1" as="geometry">
            <mxPoint y="2" as="offset" />
          </mxGeometry>
        </mxCell>
        <mxCell id="7KdjpbVQxa-HGitWMLBR-27" value="" style="endArrow=classic;html=1;rounded=0;" parent="1" source="7KdjpbVQxa-HGitWMLBR-4" target="7KdjpbVQxa-HGitWMLBR-8" edge="1">
          <mxGeometry width="50" height="50" relative="1" as="geometry">
            <mxPoint x="450" y="260" as="sourcePoint" />
            <mxPoint x="530" y="260" as="targetPoint" />
          </mxGeometry>
        </mxCell>
        <mxCell id="7KdjpbVQxa-HGitWMLBR-28" value="Include" style="edgeLabel;html=1;align=center;verticalAlign=middle;resizable=0;points=[];" parent="7KdjpbVQxa-HGitWMLBR-27" vertex="1" connectable="0">
          <mxGeometry x="-0.0435" y="2" relative="1" as="geometry">
            <mxPoint y="2" as="offset" />
          </mxGeometry>
        </mxCell>
        <mxCell id="7KdjpbVQxa-HGitWMLBR-29" value="Extends" style="endArrow=block;endSize=16;endFill=0;html=1;rounded=0;" parent="1" source="7KdjpbVQxa-HGitWMLBR-8" target="7KdjpbVQxa-HGitWMLBR-30" edge="1">
          <mxGeometry x="-0.3333" width="160" relative="1" as="geometry">
            <mxPoint x="280" y="347" as="sourcePoint" />
            <mxPoint x="420" y="490" as="targetPoint" />
            <mxPoint as="offset" />
          </mxGeometry>
        </mxCell>
        <mxCell id="7KdjpbVQxa-HGitWMLBR-30" value="Agregar&amp;nbsp;&lt;br&gt;Editar" style="ellipse;whiteSpace=wrap;html=1;" parent="1" vertex="1">
          <mxGeometry x="400" y="20" width="103" height="40" as="geometry" />
        </mxCell>
        <mxCell id="7KdjpbVQxa-HGitWMLBR-33" value="Factura de compra" style="ellipse;whiteSpace=wrap;html=1;" parent="1" vertex="1">
          <mxGeometry x="394" y="342.5" width="115" height="40" as="geometry" />
        </mxCell>
        <mxCell id="7Q9HOu2drvz0AdfJKynr-1" value="" style="endArrow=classic;html=1;rounded=0;" parent="1" source="7KdjpbVQxa-HGitWMLBR-10" target="7Q9HOu2drvz0AdfJKynr-3" edge="1">
          <mxGeometry width="50" height="50" relative="1" as="geometry">
            <mxPoint x="380" y="260" as="sourcePoint" />
            <mxPoint x="490" y="400" as="targetPoint" />
            <Array as="points" />
          </mxGeometry>
        </mxCell>
        <mxCell id="7Q9HOu2drvz0AdfJKynr-2" value="Include" style="edgeLabel;html=1;align=center;verticalAlign=middle;resizable=0;points=[];" parent="7Q9HOu2drvz0AdfJKynr-1" vertex="1" connectable="0">
          <mxGeometry x="-0.0435" y="2" relative="1" as="geometry">
            <mxPoint y="2" as="offset" />
          </mxGeometry>
        </mxCell>
        <mxCell id="7Q9HOu2drvz0AdfJKynr-3" value="Consultar pedido/orden" style="ellipse;whiteSpace=wrap;html=1;" parent="1" vertex="1">
          <mxGeometry x="640" y="225" width="100" height="50" as="geometry" />
        </mxCell>
        <mxCell id="7OBwWZN6_JswfeEJof94-1" value="Carrito de compras" style="ellipse;whiteSpace=wrap;html=1;" vertex="1" parent="1">
          <mxGeometry x="210" y="332.5" width="120" height="50" as="geometry" />
        </mxCell>
        <mxCell id="7OBwWZN6_JswfeEJof94-2" value="" style="endArrow=classic;html=1;rounded=0;" edge="1" parent="1" source="7KdjpbVQxa-HGitWMLBR-7" target="7KdjpbVQxa-HGitWMLBR-4">
          <mxGeometry width="50" height="50" relative="1" as="geometry">
            <mxPoint x="160.2588851261678" y="420.9813845236247" as="sourcePoint" />
            <mxPoint x="410" y="270" as="targetPoint" />
          </mxGeometry>
        </mxCell>
        <mxCell id="7OBwWZN6_JswfeEJof94-4" value="Include" style="edgeLabel;html=1;align=center;verticalAlign=middle;resizable=0;points=[];" vertex="1" connectable="0" parent="1">
          <mxGeometry x="369.99658214851854" y="309.9993779474932" as="geometry" />
        </mxCell>
        <mxCell id="7OBwWZN6_JswfeEJof94-5" value="" style="endArrow=classic;html=1;rounded=0;" edge="1" parent="1" source="7KdjpbVQxa-HGitWMLBR-1" target="7OBwWZN6_JswfeEJof94-1">
          <mxGeometry width="50" height="50" relative="1" as="geometry">
            <mxPoint x="290" y="320" as="sourcePoint" />
            <mxPoint x="340" y="270" as="targetPoint" />
          </mxGeometry>
        </mxCell>
        <mxCell id="7OBwWZN6_JswfeEJof94-6" value="" style="endArrow=classic;html=1;rounded=0;" edge="1" parent="1" source="7OBwWZN6_JswfeEJof94-1" target="7KdjpbVQxa-HGitWMLBR-10">
          <mxGeometry width="50" height="50" relative="1" as="geometry">
            <mxPoint x="290" y="320" as="sourcePoint" />
            <mxPoint x="340" y="270" as="targetPoint" />
          </mxGeometry>
        </mxCell>
        <mxCell id="7OBwWZN6_JswfeEJof94-8" value="Include" style="edgeLabel;html=1;align=center;verticalAlign=middle;resizable=0;points=[];" vertex="1" connectable="0" parent="1">
          <mxGeometry x="170" y="125" as="geometry" />
        </mxCell>
        <mxCell id="7OBwWZN6_JswfeEJof94-9" value="" style="endArrow=classic;html=1;rounded=0;" edge="1" parent="1" source="7KdjpbVQxa-HGitWMLBR-9" target="7OBwWZN6_JswfeEJof94-1">
          <mxGeometry width="50" height="50" relative="1" as="geometry">
            <mxPoint x="290" y="320" as="sourcePoint" />
            <mxPoint x="340" y="270" as="targetPoint" />
          </mxGeometry>
        </mxCell>
        <mxCell id="7OBwWZN6_JswfeEJof94-10" value="Include" style="edgeLabel;html=1;align=center;verticalAlign=middle;resizable=0;points=[];" vertex="1" connectable="0" parent="1">
          <mxGeometry x="280" y="300" as="geometry" />
        </mxCell>
        <mxCell id="7OBwWZN6_JswfeEJof94-11" value="Extends" style="endArrow=block;endSize=16;endFill=0;html=1;rounded=0;" edge="1" parent="1" source="7KdjpbVQxa-HGitWMLBR-10" target="7KdjpbVQxa-HGitWMLBR-33">
          <mxGeometry width="160" relative="1" as="geometry">
            <mxPoint x="275" y="450" as="sourcePoint" />
            <mxPoint x="275" y="510" as="targetPoint" />
          </mxGeometry>
        </mxCell>
        <mxCell id="7OBwWZN6_JswfeEJof94-12" value="Rastrear envio" style="ellipse;whiteSpace=wrap;html=1;" vertex="1" parent="1">
          <mxGeometry x="634" y="105" width="110" height="40" as="geometry" />
        </mxCell>
        <mxCell id="7OBwWZN6_JswfeEJof94-13" value="" style="endArrow=classic;html=1;rounded=0;" edge="1" parent="1" source="7Q9HOu2drvz0AdfJKynr-3" target="7OBwWZN6_JswfeEJof94-12">
          <mxGeometry width="50" height="50" relative="1" as="geometry">
            <mxPoint x="280" y="280" as="sourcePoint" />
            <mxPoint x="330" y="230" as="targetPoint" />
          </mxGeometry>
        </mxCell>
        <mxCell id="7OBwWZN6_JswfeEJof94-14" value="Include" style="edgeLabel;html=1;align=center;verticalAlign=middle;resizable=0;points=[];" vertex="1" connectable="0" parent="1">
          <mxGeometry x="690" y="190" as="geometry" />
        </mxCell>
        <mxCell id="7OBwWZN6_JswfeEJof94-15" value="Extends" style="endArrow=block;endSize=16;endFill=0;html=1;rounded=0;" edge="1" parent="1" source="7Q9HOu2drvz0AdfJKynr-3" target="7OBwWZN6_JswfeEJof94-16">
          <mxGeometry width="160" relative="1" as="geometry">
            <mxPoint x="507" y="284" as="sourcePoint" />
            <mxPoint x="590" y="340" as="targetPoint" />
          </mxGeometry>
        </mxCell>
        <mxCell id="7OBwWZN6_JswfeEJof94-16" value="Cancelar orden" style="ellipse;whiteSpace=wrap;html=1;" vertex="1" parent="1">
          <mxGeometry x="639" y="332.5" width="100" height="40" as="geometry" />
        </mxCell>
      </root>
    </mxGraphModel>
  </diagram>
  <diagram id="aONQHpyn2XUjurYHtMGX" name="Empleado">
    <mxGraphModel dx="872" dy="537" grid="1" gridSize="10" guides="1" tooltips="1" connect="1" arrows="1" fold="1" page="1" pageScale="1" pageWidth="827" pageHeight="1169" math="0" shadow="0">
      <root>
        <mxCell id="0" />
        <mxCell id="1" parent="0" />
        <mxCell id="Cwi5pCa_--P7rpMbxBLl-1" value="EMPLEADO" style="shape=umlActor;verticalLabelPosition=bottom;verticalAlign=top;html=1;outlineConnect=0;" parent="1" vertex="1">
          <mxGeometry x="20" y="250" width="30" height="60" as="geometry" />
        </mxCell>
        <mxCell id="o9VyTUK-JIEAHvUZ7N4B-1" value="Iniciar SesiÃ³n" style="ellipse;whiteSpace=wrap;html=1;" parent="1" vertex="1">
          <mxGeometry x="120" y="260" width="100" height="40" as="geometry" />
        </mxCell>
        <mxCell id="o9VyTUK-JIEAHvUZ7N4B-2" value="" style="endArrow=classic;html=1;rounded=0;" parent="1" source="Cwi5pCa_--P7rpMbxBLl-1" target="o9VyTUK-JIEAHvUZ7N4B-1" edge="1">
          <mxGeometry width="50" height="50" relative="1" as="geometry">
            <mxPoint x="390" y="330" as="sourcePoint" />
            <mxPoint x="440" y="280" as="targetPoint" />
          </mxGeometry>
        </mxCell>
        <mxCell id="o9VyTUK-JIEAHvUZ7N4B-3" value="Gestionar usuarios" style="ellipse;whiteSpace=wrap;html=1;" parent="1" vertex="1">
          <mxGeometry x="300" y="90" width="100" height="50" as="geometry" />
        </mxCell>
        <mxCell id="o9VyTUK-JIEAHvUZ7N4B-4" value="Gestionar productos" style="ellipse;whiteSpace=wrap;html=1;" parent="1" vertex="1">
          <mxGeometry x="300" y="195" width="100" height="50" as="geometry" />
        </mxCell>
        <mxCell id="o9VyTUK-JIEAHvUZ7N4B-5" value="Gestionar categorias" style="ellipse;whiteSpace=wrap;html=1;" parent="1" vertex="1">
          <mxGeometry x="300" y="340" width="100" height="50" as="geometry" />
        </mxCell>
        <mxCell id="FmbrXDjMwX4HL6MXott2-1" value="" style="endArrow=classic;html=1;rounded=0;" parent="1" source="o9VyTUK-JIEAHvUZ7N4B-1" target="o9VyTUK-JIEAHvUZ7N4B-3" edge="1">
          <mxGeometry width="50" height="50" relative="1" as="geometry">
            <mxPoint x="169" y="345" as="sourcePoint" />
            <mxPoint x="237" y="301" as="targetPoint" />
            <Array as="points">
              <mxPoint x="170" y="115" />
            </Array>
          </mxGeometry>
        </mxCell>
        <mxCell id="FmbrXDjMwX4HL6MXott2-2" value="Include" style="edgeLabel;html=1;align=center;verticalAlign=middle;resizable=0;points=[];" parent="FmbrXDjMwX4HL6MXott2-1" vertex="1" connectable="0">
          <mxGeometry x="-0.0435" y="2" relative="1" as="geometry">
            <mxPoint x="52" y="-3" as="offset" />
          </mxGeometry>
        </mxCell>
        <mxCell id="FmbrXDjMwX4HL6MXott2-3" value="" style="endArrow=classic;html=1;rounded=0;" parent="1" source="o9VyTUK-JIEAHvUZ7N4B-1" target="o9VyTUK-JIEAHvUZ7N4B-5" edge="1">
          <mxGeometry width="50" height="50" relative="1" as="geometry">
            <mxPoint x="180" y="270" as="sourcePoint" />
            <mxPoint x="280" y="125" as="targetPoint" />
            <Array as="points">
              <mxPoint x="170" y="365" />
            </Array>
          </mxGeometry>
        </mxCell>
        <mxCell id="FmbrXDjMwX4HL6MXott2-4" value="Include" style="edgeLabel;html=1;align=center;verticalAlign=middle;resizable=0;points=[];" parent="FmbrXDjMwX4HL6MXott2-3" vertex="1" connectable="0">
          <mxGeometry x="-0.0435" y="2" relative="1" as="geometry">
            <mxPoint x="47" y="2" as="offset" />
          </mxGeometry>
        </mxCell>
        <mxCell id="FmbrXDjMwX4HL6MXott2-5" value="" style="endArrow=classic;html=1;rounded=0;" parent="1" source="o9VyTUK-JIEAHvUZ7N4B-1" target="o9VyTUK-JIEAHvUZ7N4B-4" edge="1">
          <mxGeometry width="50" height="50" relative="1" as="geometry">
            <mxPoint x="180" y="270" as="sourcePoint" />
            <mxPoint x="280" y="175" as="targetPoint" />
            <Array as="points">
              <mxPoint x="170" y="220" />
            </Array>
          </mxGeometry>
        </mxCell>
        <mxCell id="FmbrXDjMwX4HL6MXott2-6" value="Include" style="edgeLabel;html=1;align=center;verticalAlign=middle;resizable=0;points=[];" parent="FmbrXDjMwX4HL6MXott2-5" vertex="1" connectable="0">
          <mxGeometry x="-0.0435" y="2" relative="1" as="geometry">
            <mxPoint y="2" as="offset" />
          </mxGeometry>
        </mxCell>
        <mxCell id="FmbrXDjMwX4HL6MXott2-7" value="Crear&lt;br&gt;Modificar&lt;div&gt;Consultar&lt;/div&gt;" style="ellipse;whiteSpace=wrap;html=1;" parent="1" vertex="1">
          <mxGeometry x="510" y="80" width="120" height="70" as="geometry" />
        </mxCell>
        <mxCell id="ET832z4WDU_SknSu5k98-1" value="Extends" style="endArrow=block;endSize=16;endFill=0;html=1;rounded=0;" parent="1" source="o9VyTUK-JIEAHvUZ7N4B-3" target="FmbrXDjMwX4HL6MXott2-7" edge="1">
          <mxGeometry width="160" relative="1" as="geometry">
            <mxPoint x="270" y="245" as="sourcePoint" />
            <mxPoint x="350" y="70" as="targetPoint" />
          </mxGeometry>
        </mxCell>
        <mxCell id="A1PQ3ys2Pbj8s_YeE-4w-1" value="Crear&lt;br&gt;Modificar&lt;div&gt;Consultar&lt;/div&gt;" style="ellipse;whiteSpace=wrap;html=1;" parent="1" vertex="1">
          <mxGeometry x="510" y="185" width="120" height="70" as="geometry" />
        </mxCell>
        <mxCell id="A1PQ3ys2Pbj8s_YeE-4w-2" value="Crear&lt;br&gt;Modificar&lt;div&gt;Consultar&lt;/div&gt;" style="ellipse;whiteSpace=wrap;html=1;" parent="1" vertex="1">
          <mxGeometry x="510" y="330" width="120" height="70" as="geometry" />
        </mxCell>
        <mxCell id="A1PQ3ys2Pbj8s_YeE-4w-3" value="Extends" style="endArrow=block;endSize=16;endFill=0;html=1;rounded=0;" parent="1" source="o9VyTUK-JIEAHvUZ7N4B-5" target="A1PQ3ys2Pbj8s_YeE-4w-2" edge="1">
          <mxGeometry width="160" relative="1" as="geometry">
            <mxPoint x="360" y="150" as="sourcePoint" />
            <mxPoint x="360" y="90" as="targetPoint" />
          </mxGeometry>
        </mxCell>
        <mxCell id="A1PQ3ys2Pbj8s_YeE-4w-4" value="Extends" style="endArrow=block;endSize=16;endFill=0;html=1;rounded=0;" parent="1" source="o9VyTUK-JIEAHvUZ7N4B-4" target="A1PQ3ys2Pbj8s_YeE-4w-1" edge="1">
          <mxGeometry width="160" relative="1" as="geometry">
            <mxPoint x="360" y="150" as="sourcePoint" />
            <mxPoint x="360" y="90" as="targetPoint" />
          </mxGeometry>
        </mxCell>
        <mxCell id="A1PQ3ys2Pbj8s_YeE-4w-5" value="Gestionar ordenes/pedidos" style="ellipse;whiteSpace=wrap;html=1;" parent="1" vertex="1">
          <mxGeometry x="301" y="550" width="98" height="55" as="geometry" />
        </mxCell>
        <mxCell id="A1PQ3ys2Pbj8s_YeE-4w-7" value="" style="endArrow=classic;html=1;rounded=0;" parent="1" source="o9VyTUK-JIEAHvUZ7N4B-1" target="A1PQ3ys2Pbj8s_YeE-4w-5" edge="1">
          <mxGeometry width="50" height="50" relative="1" as="geometry">
            <mxPoint x="180" y="310" as="sourcePoint" />
            <mxPoint x="310" y="385" as="targetPoint" />
            <Array as="points">
              <mxPoint x="170" y="580" />
            </Array>
          </mxGeometry>
        </mxCell>
        <mxCell id="A1PQ3ys2Pbj8s_YeE-4w-8" value="Include" style="edgeLabel;html=1;align=center;verticalAlign=middle;resizable=0;points=[];" parent="A1PQ3ys2Pbj8s_YeE-4w-7" vertex="1" connectable="0">
          <mxGeometry x="-0.0435" y="2" relative="1" as="geometry">
            <mxPoint x="48" y="81" as="offset" />
          </mxGeometry>
        </mxCell>
        <mxCell id="RZOdqkJ81gHE2ISxGhyS-1" value="Pendiente&lt;div&gt;Aceptado&lt;/div&gt;&lt;div&gt;Eliminado&lt;/div&gt;" style="ellipse;whiteSpace=wrap;html=1;" parent="1" vertex="1">
          <mxGeometry x="510" y="542.5" width="120" height="70" as="geometry" />
        </mxCell>
        <mxCell id="RZOdqkJ81gHE2ISxGhyS-2" value="Extends" style="endArrow=block;endSize=16;endFill=0;html=1;rounded=0;" parent="1" source="A1PQ3ys2Pbj8s_YeE-4w-5" target="RZOdqkJ81gHE2ISxGhyS-1" edge="1">
          <mxGeometry width="160" relative="1" as="geometry">
            <mxPoint x="387" y="446" as="sourcePoint" />
            <mxPoint x="454" y="497" as="targetPoint" />
          </mxGeometry>
        </mxCell>
        <mxCell id="Ii9pP-FK6n99nxGd7imX-1" value="" style="endArrow=classic;html=1;rounded=0;" edge="1" parent="1" source="A1PQ3ys2Pbj8s_YeE-4w-5" target="Ii9pP-FK6n99nxGd7imX-2">
          <mxGeometry width="50" height="50" relative="1" as="geometry">
            <mxPoint x="390" y="540" as="sourcePoint" />
            <mxPoint x="410" y="700" as="targetPoint" />
            <Array as="points">
              <mxPoint x="350" y="695" />
            </Array>
          </mxGeometry>
        </mxCell>
        <mxCell id="Ii9pP-FK6n99nxGd7imX-2" value="Asignar Envio" style="ellipse;whiteSpace=wrap;html=1;" vertex="1" parent="1">
          <mxGeometry x="399" y="670" width="100" height="50" as="geometry" />
        </mxCell>
        <mxCell id="Ii9pP-FK6n99nxGd7imX-3" value="Extends" style="endArrow=block;endSize=16;endFill=0;html=1;rounded=0;" edge="1" parent="1" source="Ii9pP-FK6n99nxGd7imX-2" target="Ii9pP-FK6n99nxGd7imX-4">
          <mxGeometry width="160" relative="1" as="geometry">
            <mxPoint x="410" y="588" as="sourcePoint" />
            <mxPoint x="530" y="680" as="targetPoint" />
          </mxGeometry>
        </mxCell>
        <mxCell id="Ii9pP-FK6n99nxGd7imX-4" value="Asignar compaÃ±ia&lt;br&gt;Asignar fechas&lt;br&gt;Estado del envio&lt;br&gt;(Entregado, cancelado, pagado, enviado)" style="ellipse;whiteSpace=wrap;html=1;" vertex="1" parent="1">
          <mxGeometry x="606.34" y="640" width="150" height="110" as="geometry" />
        </mxCell>
        <mxCell id="Ii9pP-FK6n99nxGd7imX-5" value="" style="endArrow=classic;html=1;rounded=0;" edge="1" parent="1" source="o9VyTUK-JIEAHvUZ7N4B-5" target="Ii9pP-FK6n99nxGd7imX-6">
          <mxGeometry width="50" height="50" relative="1" as="geometry">
            <mxPoint x="390" y="360" as="sourcePoint" />
            <mxPoint x="350" y="460" as="targetPoint" />
            <Array as="points">
              <mxPoint x="350" y="465" />
            </Array>
          </mxGeometry>
        </mxCell>
        <mxCell id="Ii9pP-FK6n99nxGd7imX-6" value="Gestionar subctegorias" style="ellipse;whiteSpace=wrap;html=1;" vertex="1" parent="1">
          <mxGeometry x="400" y="440" width="110" height="50" as="geometry" />
        </mxCell>
        <mxCell id="Ii9pP-FK6n99nxGd7imX-7" value="Crear&lt;br&gt;Modificar&lt;div&gt;Consultar&lt;/div&gt;" style="ellipse;whiteSpace=wrap;html=1;" vertex="1" parent="1">
          <mxGeometry x="606.3399999999999" y="430" width="120" height="70" as="geometry" />
        </mxCell>
        <mxCell id="Ii9pP-FK6n99nxGd7imX-8" value="Extends" style="endArrow=block;endSize=16;endFill=0;html=1;rounded=0;" edge="1" parent="1" target="Ii9pP-FK6n99nxGd7imX-7" source="Ii9pP-FK6n99nxGd7imX-6">
          <mxGeometry width="160" relative="1" as="geometry">
            <mxPoint x="530.004885596626" y="467.4185210567719" as="sourcePoint" />
            <mxPoint x="456.34000000000003" y="180.00000000000003" as="targetPoint" />
          </mxGeometry>
        </mxCell>
        <mxCell id="Ii9pP-FK6n99nxGd7imX-9" value="" style="endArrow=classic;html=1;rounded=0;" edge="1" parent="1" source="o9VyTUK-JIEAHvUZ7N4B-1" target="Ii9pP-FK6n99nxGd7imX-11">
          <mxGeometry width="50" height="50" relative="1" as="geometry">
            <mxPoint x="180" y="310" as="sourcePoint" />
            <mxPoint x="280" y="880" as="targetPoint" />
            <Array as="points">
              <mxPoint x="170" y="880" />
            </Array>
          </mxGeometry>
        </mxCell>
        <mxCell id="Ii9pP-FK6n99nxGd7imX-10" value="Include" style="edgeLabel;html=1;align=center;verticalAlign=middle;resizable=0;points=[];" vertex="1" connectable="0" parent="Ii9pP-FK6n99nxGd7imX-9">
          <mxGeometry x="-0.0435" y="2" relative="1" as="geometry">
            <mxPoint x="-2" y="80" as="offset" />
          </mxGeometry>
        </mxCell>
        <mxCell id="Ii9pP-FK6n99nxGd7imX-11" value="MAIA ERP" style="ellipse;whiteSpace=wrap;html=1;" vertex="1" parent="1">
          <mxGeometry x="300" y="847.5" width="100" height="60" as="geometry" />
        </mxCell>
        <mxCell id="Ii9pP-FK6n99nxGd7imX-13" value="Gestionar usuarios" style="ellipse;whiteSpace=wrap;html=1;" vertex="1" parent="1">
          <mxGeometry x="480" y="802.5" width="100" height="50" as="geometry" />
        </mxCell>
        <mxCell id="Ii9pP-FK6n99nxGd7imX-14" value="Gestionar productos" style="ellipse;whiteSpace=wrap;html=1;" vertex="1" parent="1">
          <mxGeometry x="480" y="907.5" width="100" height="50" as="geometry" />
        </mxCell>
        <mxCell id="Ii9pP-FK6n99nxGd7imX-15" value="Crear&lt;br&gt;Sincronizar&lt;br&gt;Modificar&lt;div&gt;Consultar&lt;/div&gt;" style="ellipse;whiteSpace=wrap;html=1;" vertex="1" parent="1">
          <mxGeometry x="650" y="792.5" width="120" height="70" as="geometry" />
        </mxCell>
        <mxCell id="Ii9pP-FK6n99nxGd7imX-16" value="Extends" style="endArrow=block;endSize=16;endFill=0;html=1;rounded=0;" edge="1" parent="1" source="Ii9pP-FK6n99nxGd7imX-13" target="Ii9pP-FK6n99nxGd7imX-15">
          <mxGeometry x="-0.4286" y="-12" width="160" relative="1" as="geometry">
            <mxPoint x="420" y="957.5" as="sourcePoint" />
            <mxPoint x="500" y="782.5" as="targetPoint" />
            <mxPoint y="1" as="offset" />
          </mxGeometry>
        </mxCell>
        <mxCell id="Ii9pP-FK6n99nxGd7imX-17" value="Crear&lt;div&gt;Sincronizar&lt;br&gt;Modificar&lt;div&gt;Consultar&lt;/div&gt;&lt;/div&gt;" style="ellipse;whiteSpace=wrap;html=1;" vertex="1" parent="1">
          <mxGeometry x="650" y="897.5" width="120" height="70" as="geometry" />
        </mxCell>
        <mxCell id="Ii9pP-FK6n99nxGd7imX-18" value="Extends" style="endArrow=block;endSize=16;endFill=0;html=1;rounded=0;" edge="1" parent="1" source="Ii9pP-FK6n99nxGd7imX-14" target="Ii9pP-FK6n99nxGd7imX-17">
          <mxGeometry x="-0.4286" y="-17" width="160" relative="1" as="geometry">
            <mxPoint x="510" y="862.5" as="sourcePoint" />
            <mxPoint x="510" y="802.5" as="targetPoint" />
            <mxPoint y="1" as="offset" />
          </mxGeometry>
        </mxCell>
        <mxCell id="Ii9pP-FK6n99nxGd7imX-19" value="" style="endArrow=none;html=1;rounded=0;" edge="1" parent="1" source="Ii9pP-FK6n99nxGd7imX-11">
          <mxGeometry width="50" height="50" relative="1" as="geometry">
            <mxPoint x="390" y="850" as="sourcePoint" />
            <mxPoint x="440" y="878" as="targetPoint" />
          </mxGeometry>
        </mxCell>
        <mxCell id="Ii9pP-FK6n99nxGd7imX-20" value="" style="endArrow=classic;html=1;rounded=0;" edge="1" parent="1" target="Ii9pP-FK6n99nxGd7imX-13">
          <mxGeometry width="50" height="50" relative="1" as="geometry">
            <mxPoint x="440" y="880" as="sourcePoint" />
            <mxPoint x="440" y="800" as="targetPoint" />
            <Array as="points">
              <mxPoint x="440" y="830" />
            </Array>
          </mxGeometry>
        </mxCell>
        <mxCell id="Ii9pP-FK6n99nxGd7imX-21" value="" style="endArrow=classic;html=1;rounded=0;" edge="1" parent="1" target="Ii9pP-FK6n99nxGd7imX-14">
          <mxGeometry width="50" height="50" relative="1" as="geometry">
            <mxPoint x="440" y="880" as="sourcePoint" />
            <mxPoint x="490" y="839" as="targetPoint" />
            <Array as="points">
              <mxPoint x="440" y="933" />
            </Array>
          </mxGeometry>
        </mxCell>
      </root>
    </mxGraphModel>
  </diagram>
  <diagram id="Fqg6dZ5B0VePC6TuEG5C" name="Administrador">
    <mxGraphModel dx="872" dy="537" grid="1" gridSize="10" guides="1" tooltips="1" connect="1" arrows="1" fold="1" page="1" pageScale="1" pageWidth="827" pageHeight="1169" math="0" shadow="0">
      <root>
        <mxCell id="0" />
        <mxCell id="1" parent="0" />
        <mxCell id="aH56csmPqbT27xNhqB_u-1" value="ADMIN" style="shape=umlActor;verticalLabelPosition=bottom;verticalAlign=top;html=1;outlineConnect=0;" vertex="1" parent="1">
          <mxGeometry x="20" y="250" width="30" height="60" as="geometry" />
        </mxCell>
        <mxCell id="aH56csmPqbT27xNhqB_u-2" value="Iniciar SesiÃ³n" style="ellipse;whiteSpace=wrap;html=1;" vertex="1" parent="1">
          <mxGeometry x="120" y="260" width="100" height="40" as="geometry" />
        </mxCell>
        <mxCell id="aH56csmPqbT27xNhqB_u-3" value="" style="endArrow=classic;html=1;rounded=0;" edge="1" parent="1" source="aH56csmPqbT27xNhqB_u-1" target="aH56csmPqbT27xNhqB_u-2">
          <mxGeometry width="50" height="50" relative="1" as="geometry">
            <mxPoint x="390" y="330" as="sourcePoint" />
            <mxPoint x="440" y="280" as="targetPoint" />
          </mxGeometry>
        </mxCell>
        <mxCell id="aH56csmPqbT27xNhqB_u-4" value="Gestionar usuarios" style="ellipse;whiteSpace=wrap;html=1;" vertex="1" parent="1">
          <mxGeometry x="300" y="90" width="100" height="50" as="geometry" />
        </mxCell>
        <mxCell id="aH56csmPqbT27xNhqB_u-5" value="Gestionar productos" style="ellipse;whiteSpace=wrap;html=1;" vertex="1" parent="1">
          <mxGeometry x="300" y="195" width="100" height="50" as="geometry" />
        </mxCell>
        <mxCell id="aH56csmPqbT27xNhqB_u-6" value="Gestionar categorias" style="ellipse;whiteSpace=wrap;html=1;" vertex="1" parent="1">
          <mxGeometry x="300" y="340" width="100" height="50" as="geometry" />
        </mxCell>
        <mxCell id="aH56csmPqbT27xNhqB_u-7" value="" style="endArrow=classic;html=1;rounded=0;" edge="1" parent="1" source="aH56csmPqbT27xNhqB_u-2" target="aH56csmPqbT27xNhqB_u-4">
          <mxGeometry width="50" height="50" relative="1" as="geometry">
            <mxPoint x="169" y="345" as="sourcePoint" />
            <mxPoint x="237" y="301" as="targetPoint" />
            <Array as="points">
              <mxPoint x="170" y="115" />
            </Array>
          </mxGeometry>
        </mxCell>
        <mxCell id="aH56csmPqbT27xNhqB_u-8" value="Include" style="edgeLabel;html=1;align=center;verticalAlign=middle;resizable=0;points=[];" vertex="1" connectable="0" parent="aH56csmPqbT27xNhqB_u-7">
          <mxGeometry x="-0.0435" y="2" relative="1" as="geometry">
            <mxPoint x="52" y="-3" as="offset" />
          </mxGeometry>
        </mxCell>
        <mxCell id="aH56csmPqbT27xNhqB_u-9" value="" style="endArrow=classic;html=1;rounded=0;" edge="1" parent="1" source="aH56csmPqbT27xNhqB_u-2" target="aH56csmPqbT27xNhqB_u-6">
          <mxGeometry width="50" height="50" relative="1" as="geometry">
            <mxPoint x="180" y="270" as="sourcePoint" />
            <mxPoint x="280" y="125" as="targetPoint" />
            <Array as="points">
              <mxPoint x="170" y="365" />
            </Array>
          </mxGeometry>
        </mxCell>
        <mxCell id="aH56csmPqbT27xNhqB_u-10" value="Include" style="edgeLabel;html=1;align=center;verticalAlign=middle;resizable=0;points=[];" vertex="1" connectable="0" parent="aH56csmPqbT27xNhqB_u-9">
          <mxGeometry x="-0.0435" y="2" relative="1" as="geometry">
            <mxPoint x="47" y="2" as="offset" />
          </mxGeometry>
        </mxCell>
        <mxCell id="aH56csmPqbT27xNhqB_u-11" value="" style="endArrow=classic;html=1;rounded=0;" edge="1" parent="1" source="aH56csmPqbT27xNhqB_u-2" target="aH56csmPqbT27xNhqB_u-5">
          <mxGeometry width="50" height="50" relative="1" as="geometry">
            <mxPoint x="180" y="270" as="sourcePoint" />
            <mxPoint x="280" y="175" as="targetPoint" />
            <Array as="points">
              <mxPoint x="170" y="220" />
            </Array>
          </mxGeometry>
        </mxCell>
        <mxCell id="aH56csmPqbT27xNhqB_u-12" value="Include" style="edgeLabel;html=1;align=center;verticalAlign=middle;resizable=0;points=[];" vertex="1" connectable="0" parent="aH56csmPqbT27xNhqB_u-11">
          <mxGeometry x="-0.0435" y="2" relative="1" as="geometry">
            <mxPoint y="2" as="offset" />
          </mxGeometry>
        </mxCell>
        <mxCell id="aH56csmPqbT27xNhqB_u-13" value="Crear&lt;br&gt;Modificar&lt;div&gt;Consultar&lt;/div&gt;&lt;div&gt;Eliminar&lt;/div&gt;" style="ellipse;whiteSpace=wrap;html=1;" vertex="1" parent="1">
          <mxGeometry x="510" y="80" width="120" height="70" as="geometry" />
        </mxCell>
        <mxCell id="aH56csmPqbT27xNhqB_u-14" value="Extends" style="endArrow=block;endSize=16;endFill=0;html=1;rounded=0;" edge="1" parent="1" source="aH56csmPqbT27xNhqB_u-4" target="aH56csmPqbT27xNhqB_u-13">
          <mxGeometry width="160" relative="1" as="geometry">
            <mxPoint x="270" y="245" as="sourcePoint" />
            <mxPoint x="350" y="70" as="targetPoint" />
          </mxGeometry>
        </mxCell>
        <mxCell id="aH56csmPqbT27xNhqB_u-15" value="Crear&lt;br&gt;Modificar&lt;div&gt;Consultar&lt;/div&gt;&lt;div&gt;Eliminar&lt;/div&gt;" style="ellipse;whiteSpace=wrap;html=1;" vertex="1" parent="1">
          <mxGeometry x="510" y="185" width="120" height="70" as="geometry" />
        </mxCell>
        <mxCell id="aH56csmPqbT27xNhqB_u-16" value="Crear&lt;br&gt;Modificar&lt;div&gt;Consultar&lt;/div&gt;&lt;div&gt;Eliminar&lt;/div&gt;" style="ellipse;whiteSpace=wrap;html=1;" vertex="1" parent="1">
          <mxGeometry x="510" y="330" width="120" height="70" as="geometry" />
        </mxCell>
        <mxCell id="aH56csmPqbT27xNhqB_u-17" value="Extends" style="endArrow=block;endSize=16;endFill=0;html=1;rounded=0;" edge="1" parent="1" source="aH56csmPqbT27xNhqB_u-6" target="aH56csmPqbT27xNhqB_u-16">
          <mxGeometry width="160" relative="1" as="geometry">
            <mxPoint x="360" y="150" as="sourcePoint" />
            <mxPoint x="360" y="90" as="targetPoint" />
          </mxGeometry>
        </mxCell>
        <mxCell id="aH56csmPqbT27xNhqB_u-18" value="Extends" style="endArrow=block;endSize=16;endFill=0;html=1;rounded=0;" edge="1" parent="1" source="aH56csmPqbT27xNhqB_u-5" target="aH56csmPqbT27xNhqB_u-15">
          <mxGeometry width="160" relative="1" as="geometry">
            <mxPoint x="360" y="150" as="sourcePoint" />
            <mxPoint x="360" y="90" as="targetPoint" />
          </mxGeometry>
        </mxCell>
        <mxCell id="aH56csmPqbT27xNhqB_u-19" value="Gestionar ordenes/pedidos" style="ellipse;whiteSpace=wrap;html=1;" vertex="1" parent="1">
          <mxGeometry x="301" y="550" width="98" height="55" as="geometry" />
        </mxCell>
        <mxCell id="aH56csmPqbT27xNhqB_u-20" value="" style="endArrow=classic;html=1;rounded=0;" edge="1" parent="1" source="aH56csmPqbT27xNhqB_u-2" target="aH56csmPqbT27xNhqB_u-19">
          <mxGeometry width="50" height="50" relative="1" as="geometry">
            <mxPoint x="180" y="310" as="sourcePoint" />
            <mxPoint x="310" y="385" as="targetPoint" />
            <Array as="points">
              <mxPoint x="170" y="580" />
            </Array>
          </mxGeometry>
        </mxCell>
        <mxCell id="aH56csmPqbT27xNhqB_u-21" value="Include" style="edgeLabel;html=1;align=center;verticalAlign=middle;resizable=0;points=[];" vertex="1" connectable="0" parent="aH56csmPqbT27xNhqB_u-20">
          <mxGeometry x="-0.0435" y="2" relative="1" as="geometry">
            <mxPoint x="48" y="81" as="offset" />
          </mxGeometry>
        </mxCell>
        <mxCell id="aH56csmPqbT27xNhqB_u-22" value="Pendiente&lt;div&gt;Aceptado&lt;/div&gt;&lt;div&gt;Eliminado&lt;/div&gt;" style="ellipse;whiteSpace=wrap;html=1;" vertex="1" parent="1">
          <mxGeometry x="510" y="542.5" width="120" height="70" as="geometry" />
        </mxCell>
        <mxCell id="aH56csmPqbT27xNhqB_u-23" value="Extends" style="endArrow=block;endSize=16;endFill=0;html=1;rounded=0;" edge="1" parent="1" source="aH56csmPqbT27xNhqB_u-19" target="aH56csmPqbT27xNhqB_u-22">
          <mxGeometry width="160" relative="1" as="geometry">
            <mxPoint x="387" y="446" as="sourcePoint" />
            <mxPoint x="454" y="497" as="targetPoint" />
          </mxGeometry>
        </mxCell>
        <mxCell id="aH56csmPqbT27xNhqB_u-24" value="" style="endArrow=classic;html=1;rounded=0;" edge="1" parent="1" source="aH56csmPqbT27xNhqB_u-19" target="aH56csmPqbT27xNhqB_u-25">
          <mxGeometry width="50" height="50" relative="1" as="geometry">
            <mxPoint x="390" y="540" as="sourcePoint" />
            <mxPoint x="410" y="700" as="targetPoint" />
            <Array as="points">
              <mxPoint x="350" y="695" />
            </Array>
          </mxGeometry>
        </mxCell>
        <mxCell id="aH56csmPqbT27xNhqB_u-25" value="Asignar Envio" style="ellipse;whiteSpace=wrap;html=1;" vertex="1" parent="1">
          <mxGeometry x="399" y="670" width="100" height="50" as="geometry" />
        </mxCell>
        <mxCell id="aH56csmPqbT27xNhqB_u-26" value="Extends" style="endArrow=block;endSize=16;endFill=0;html=1;rounded=0;" edge="1" parent="1" source="aH56csmPqbT27xNhqB_u-25" target="aH56csmPqbT27xNhqB_u-27">
          <mxGeometry width="160" relative="1" as="geometry">
            <mxPoint x="410" y="588" as="sourcePoint" />
            <mxPoint x="530" y="680" as="targetPoint" />
          </mxGeometry>
        </mxCell>
        <mxCell id="aH56csmPqbT27xNhqB_u-27" value="Asignar compaÃ±ia&lt;br&gt;Asignar fechas&lt;br&gt;Estado del envio&lt;br&gt;(Entregado, cancelado, pagado, enviado)" style="ellipse;whiteSpace=wrap;html=1;" vertex="1" parent="1">
          <mxGeometry x="606.34" y="640" width="150" height="110" as="geometry" />
        </mxCell>
        <mxCell id="aH56csmPqbT27xNhqB_u-28" value="" style="endArrow=classic;html=1;rounded=0;" edge="1" parent="1" source="aH56csmPqbT27xNhqB_u-6" target="aH56csmPqbT27xNhqB_u-29">
          <mxGeometry width="50" height="50" relative="1" as="geometry">
            <mxPoint x="390" y="360" as="sourcePoint" />
            <mxPoint x="350" y="460" as="targetPoint" />
            <Array as="points">
              <mxPoint x="350" y="465" />
            </Array>
          </mxGeometry>
        </mxCell>
        <mxCell id="aH56csmPqbT27xNhqB_u-29" value="Gestionar subctegorias" style="ellipse;whiteSpace=wrap;html=1;" vertex="1" parent="1">
          <mxGeometry x="400" y="440" width="110" height="50" as="geometry" />
        </mxCell>
        <mxCell id="aH56csmPqbT27xNhqB_u-30" value="Crear&lt;br&gt;Modificar&lt;div&gt;Consultar&lt;/div&gt;&lt;div&gt;Eliminar&lt;/div&gt;" style="ellipse;whiteSpace=wrap;html=1;" vertex="1" parent="1">
          <mxGeometry x="606.3399999999999" y="430" width="120" height="70" as="geometry" />
        </mxCell>
        <mxCell id="aH56csmPqbT27xNhqB_u-31" value="Extends" style="endArrow=block;endSize=16;endFill=0;html=1;rounded=0;" edge="1" parent="1" source="aH56csmPqbT27xNhqB_u-29" target="aH56csmPqbT27xNhqB_u-30">
          <mxGeometry width="160" relative="1" as="geometry">
            <mxPoint x="530.004885596626" y="467.4185210567719" as="sourcePoint" />
            <mxPoint x="456.34000000000003" y="180.00000000000003" as="targetPoint" />
          </mxGeometry>
        </mxCell>
        <mxCell id="aH56csmPqbT27xNhqB_u-32" value="" style="endArrow=classic;html=1;rounded=0;" edge="1" parent="1" source="aH56csmPqbT27xNhqB_u-2" target="aH56csmPqbT27xNhqB_u-34">
          <mxGeometry width="50" height="50" relative="1" as="geometry">
            <mxPoint x="180" y="310" as="sourcePoint" />
            <mxPoint x="280" y="880" as="targetPoint" />
            <Array as="points">
              <mxPoint x="170" y="880" />
            </Array>
          </mxGeometry>
        </mxCell>
        <mxCell id="aH56csmPqbT27xNhqB_u-33" value="Include" style="edgeLabel;html=1;align=center;verticalAlign=middle;resizable=0;points=[];" vertex="1" connectable="0" parent="aH56csmPqbT27xNhqB_u-32">
          <mxGeometry x="-0.0435" y="2" relative="1" as="geometry">
            <mxPoint x="-2" y="80" as="offset" />
          </mxGeometry>
        </mxCell>
        <mxCell id="aH56csmPqbT27xNhqB_u-34" value="MAIA ERP" style="ellipse;whiteSpace=wrap;html=1;" vertex="1" parent="1">
          <mxGeometry x="300" y="847.5" width="100" height="60" as="geometry" />
        </mxCell>
        <mxCell id="aH56csmPqbT27xNhqB_u-35" value="Gestionar usuarios" style="ellipse;whiteSpace=wrap;html=1;" vertex="1" parent="1">
          <mxGeometry x="480" y="802.5" width="100" height="50" as="geometry" />
        </mxCell>
        <mxCell id="aH56csmPqbT27xNhqB_u-36" value="Gestionar productos" style="ellipse;whiteSpace=wrap;html=1;" vertex="1" parent="1">
          <mxGeometry x="480" y="907.5" width="100" height="50" as="geometry" />
        </mxCell>
        <mxCell id="aH56csmPqbT27xNhqB_u-37" value="Crear&lt;br&gt;Sincronizar&lt;br&gt;Modificar&lt;div&gt;Consultar&lt;/div&gt;&lt;div&gt;Eliminar&lt;/div&gt;" style="ellipse;whiteSpace=wrap;html=1;" vertex="1" parent="1">
          <mxGeometry x="650" y="786.25" width="120" height="82.5" as="geometry" />
        </mxCell>
        <mxCell id="aH56csmPqbT27xNhqB_u-38" value="Extends" style="endArrow=block;endSize=16;endFill=0;html=1;rounded=0;" edge="1" parent="1" source="aH56csmPqbT27xNhqB_u-35" target="aH56csmPqbT27xNhqB_u-37">
          <mxGeometry x="-0.4286" y="-12" width="160" relative="1" as="geometry">
            <mxPoint x="420" y="957.5" as="sourcePoint" />
            <mxPoint x="500" y="782.5" as="targetPoint" />
            <mxPoint y="1" as="offset" />
          </mxGeometry>
        </mxCell>
        <mxCell id="aH56csmPqbT27xNhqB_u-39" value="Crear&lt;div&gt;Sincronizar&lt;br&gt;Modificar&lt;div&gt;Consultar&lt;br&gt;Eliminar&lt;/div&gt;&lt;/div&gt;" style="ellipse;whiteSpace=wrap;html=1;" vertex="1" parent="1">
          <mxGeometry x="650" y="893.75" width="120" height="77.5" as="geometry" />
        </mxCell>
        <mxCell id="aH56csmPqbT27xNhqB_u-40" value="Extends" style="endArrow=block;endSize=16;endFill=0;html=1;rounded=0;" edge="1" parent="1" source="aH56csmPqbT27xNhqB_u-36" target="aH56csmPqbT27xNhqB_u-39">
          <mxGeometry x="-0.4286" y="-17" width="160" relative="1" as="geometry">
            <mxPoint x="510" y="862.5" as="sourcePoint" />
            <mxPoint x="510" y="802.5" as="targetPoint" />
            <mxPoint y="1" as="offset" />
          </mxGeometry>
        </mxCell>
        <mxCell id="aH56csmPqbT27xNhqB_u-41" value="" style="endArrow=none;html=1;rounded=0;" edge="1" parent="1" source="aH56csmPqbT27xNhqB_u-34">
          <mxGeometry width="50" height="50" relative="1" as="geometry">
            <mxPoint x="390" y="850" as="sourcePoint" />
            <mxPoint x="440" y="878" as="targetPoint" />
          </mxGeometry>
        </mxCell>
        <mxCell id="aH56csmPqbT27xNhqB_u-42" value="" style="endArrow=classic;html=1;rounded=0;" edge="1" parent="1" target="aH56csmPqbT27xNhqB_u-35">
          <mxGeometry width="50" height="50" relative="1" as="geometry">
            <mxPoint x="440" y="880" as="sourcePoint" />
            <mxPoint x="440" y="800" as="targetPoint" />
            <Array as="points">
              <mxPoint x="440" y="830" />
            </Array>
          </mxGeometry>
        </mxCell>
        <mxCell id="aH56csmPqbT27xNhqB_u-43" value="" style="endArrow=classic;html=1;rounded=0;" edge="1" parent="1" target="aH56csmPqbT27xNhqB_u-36">
          <mxGeometry width="50" height="50" relative="1" as="geometry">
            <mxPoint x="440" y="880" as="sourcePoint" />
            <mxPoint x="490" y="839" as="targetPoint" />
            <Array as="points">
              <mxPoint x="440" y="933" />
            </Array>
          </mxGeometry>
        </mxCell>
      </root>
    </mxGraphModel>
  </diagram>
</mxfile>
